# xmcd
#
# Track frame offsets: 
#        150
#        14733
#        33088
#        49643
#        78885
#        95962
#        120133
#        145045
#        160957
#        185242
#        202828
#        231465
#        257042
#        281145
#
# Disc length: 4440 seconds
#
# Revision: 2
# Processed by: cddbd v1.5.2PL0 Copyright (c) Steve Scherf et al.
# Submitted via: ExactAudioCopyFreeDBPlugin 1.0
#
DISCID=c011560e
DTITLE=Various Artist - Women in Blue
DYEAR=2003
DGENRE=Blues
TTITLE0=Norah Jones - Come Away with Me
TTITLE1=Patricia Kaas - Autumn Leaves (Les feuilles mortes)
TTITLE2=Melissa Errico - Hot in Here!
TTITLE3=Sanne Salomonsen - Sometimes it Snows in April
TTITLE4=Lisa Ono - Beyond the Reef
TTITLE5=Jane Monheit - Save Your Love for Me
TTITLE6=Cassandra Wilson - Tupelo Honey
TTITLE7=Holly Cole - (Looking for) The Heart of Saturday Night
TTITLE8=Caecilie Norby - Calling You
TTITLE9=Monica Mancini - With My Lover Beside Me
TTITLE10=K.D. Lang - Haint it Funny?
TTITLE11=Patricia Barber - Regular Pleasures
TTITLE12=Peggy Lee - As Time Goes By (Remix)
TTITLE13=Data Track
EXTD=Compilation\nBlue Note Records\nEMI
EXTT0=
EXTT1=
EXTT2=
EXTT3=
EXTT4=
EXTT5=
EXTT6=
EXTT7=
EXTT8=
EXTT9=
EXTT10=
EXTT11=
EXTT12=
EXTT13=
PLAYORDER=
